<svg width="40" height="40" viewBox="0 0 40 40" fill="none" xmlns="http://www.w3.org/2000/svg">
<circle cx="20" cy="20" r="19" fill="#0A0A0A" stroke="white" stroke-width="2"/>
<path d="M20.944 25.04V23.12H16.16C16.0533 23.12 16 23.0667 16 22.96V22.048C16 21.92 16.0427 21.7973 16.128 21.68L21.216 14.128C21.2693 14.0427 21.3387 14 21.424 14H22.416C22.5227 14 22.576 14.0533 22.576 14.16V21.552H24.16C24.2667 21.552 24.32 21.6053 24.32 21.712V22.96C24.32 23.0667 24.2667 23.12 24.16 23.12H22.576V25.04C22.576 25.1467 22.5173 25.2 22.4 25.2H21.104C20.9973 25.2 20.944 25.1467 20.944 25.04ZM20.944 17.104L17.952 21.552H20.944V17.104Z" fill="white"/>
</svg>
