<svg xmlns="http://www.w3.org/2000/svg" width="180" viewBox="0 0 180 180" height="180" version="1.0"><defs><clipPath id="a"><path d="M 35.699219 43.300781 L 144.449219 43.300781 L 144.449219 137.050781 L 35.699219 137.050781 Z M 35.699219 43.300781"/></clipPath></defs><g clip-path="url(#a)"><path fill="#FFF" d="M 39.546875 106.328125 L 55.148438 92.039062 L 73.230469 107.613281 L 99.980469 76.464844 L 140.601562 104.011719 L 140.601562 133.226562 L 39.546875 133.226562 Z M 140.472656 99.304688 L 102.117188 73.300781 L 99.304688 71.390625 L 97.089844 73.972656 L 72.828125 102.222656 L 57.636719 89.140625 L 55.074219 86.929688 L 52.578125 89.21875 L 39.546875 101.148438 L 39.546875 47.125 L 140.472656 47.125 Z M 144.285156 101.894531 L 144.285156 47.125 C 144.285156 45.011719 142.578125 43.300781 140.472656 43.300781 L 39.546875 43.300781 C 37.4375 43.300781 35.730469 45.011719 35.730469 47.125 L 35.730469 137.050781 L 144.414062 137.050781 L 144.414062 101.980469 L 144.285156 101.894531"/></g><path fill="#FFF" d="M 67.539062 59.089844 C 72.976562 59.089844 77.382812 63.507812 77.382812 68.957031 C 77.382812 74.40625 72.976562 78.824219 67.539062 78.824219 C 62.101562 78.824219 57.695312 74.40625 57.695312 68.957031 C 57.695312 63.507812 62.101562 59.089844 67.539062 59.089844 Z M 67.539062 82.648438 C 75.070312 82.648438 81.199219 76.503906 81.199219 68.957031 C 81.199219 61.40625 75.070312 55.265625 67.539062 55.265625 C 60.007812 55.265625 53.878906 61.40625 53.878906 68.957031 C 53.878906 76.503906 60.007812 82.648438 67.539062 82.648438"/></svg>