<svg width="240" height="240" viewBox="0 0 240 240" fill="none" xmlns="http://www.w3.org/2000/svg">
<path d="M52.5 62C52.5 56.201 57.201 51.5 63 51.5H179C184.799 51.5 189.5 56.201 189.5 62V68.5H52.5V62Z" stroke="white" stroke-width="3"/>
<circle cx="64" cy="60" r="3" fill="white"/>
<circle cx="74" cy="60" r="3" fill="white"/>
<circle cx="84" cy="60" r="3" fill="white"/>
<rect x="52.5" y="83.5" width="137" height="61" rx="10.5" stroke="white" stroke-width="3"/>
<rect x="52.5" y="159.5" width="61" height="29" rx="10.5" stroke="white" stroke-width="3"/>
<path fill-rule="evenodd" clip-rule="evenodd" d="M120.496 94.011L121.509 94.0111C122.06 94.0019 122.581 94.2665 122.898 94.7177L128.198 102.373C129.07 103.691 129.43 105.282 129.211 106.848L128.516 112.63C130.543 113.588 131.684 115.778 131.307 117.988L129.918 126.02C129.836 126.466 129.412 126.765 128.964 126.691L128.139 126.55C126.833 126.32 125.673 125.579 124.913 124.493C124.153 123.406 123.856 122.062 124.088 120.756L124.394 118.966L117.54 118.966L117.847 120.756C118.078 122.061 117.782 123.406 117.022 124.492C116.262 125.579 115.101 126.319 113.795 126.55L112.971 126.691C112.523 126.765 112.099 126.466 112.017 126.02L110.627 117.988C110.25 115.778 111.391 113.587 113.418 112.63L112.688 106.812C112.508 105.245 112.906 103.667 113.807 102.372L119.106 94.7176C119.424 94.2665 119.944 94.0019 120.496 94.011ZM115.609 106.506L116.752 116.08L125.254 116.08L126.397 106.482C126.479 105.627 126.263 104.77 125.784 104.056L124.312 101.925L117.694 101.925L116.221 104.056C115.739 104.777 115.522 105.643 115.609 106.506ZM118.506 108.131C118.554 109.475 119.657 110.541 121.003 110.541C122.348 110.541 123.452 109.475 123.499 108.131C123.452 106.786 122.348 105.721 121.003 105.721C119.657 105.721 118.554 106.786 118.506 108.131ZM119.586 124.933C119.743 124.776 119.956 124.688 120.178 124.689L121.827 124.689C122.049 124.689 122.262 124.776 122.419 124.933C122.576 125.09 122.664 125.304 122.663 125.526L122.663 133.204C122.664 133.426 122.576 133.639 122.419 133.796C122.262 133.953 122.049 134.041 121.827 134.04L120.178 134.04C119.956 134.041 119.743 133.953 119.586 133.796C119.429 133.639 119.341 133.426 119.342 133.204L119.342 125.526C119.341 125.303 119.429 125.09 119.586 124.933Z" fill="white"/>
<path d="M129 166H189" stroke="white" stroke-width="3" stroke-linecap="round"/>
<path d="M129 180H176" stroke="white" stroke-width="3" stroke-linecap="round"/>
<path d="M53 99.1072C57.5743 96.1143 68.2476 99.1072 65.7064 109.083C70.7889 108.585 76.2781 112.076 73.8384 120.057C78.921 118.561 86.2399 122.352 82.987 131.53C89.0861 129.036 97.7264 134.523 94.1686 144" stroke="white" stroke-width="3"/>
<path d="M189 99.1072C184.426 96.1143 173.752 99.1072 176.294 109.083C171.211 108.585 165.722 112.076 168.162 120.057C163.079 118.561 155.76 122.352 159.013 131.53C152.914 129.036 144.274 134.523 147.831 144" stroke="white" stroke-width="3"/>
</svg>
