<svg width="24" height="24" viewBox="0 0 24 24" fill="none" xmlns="http://www.w3.org/2000/svg">
<path d="M20.9674 3.94904L14.9783 20.6706C14.9068 20.8682 14.7192 20.9999 14.5091 21H14.3494C14.1534 21 13.9748 20.8874 13.8902 20.7105L11.5345 15.719C11.1876 14.9831 11.3219 14.1103 11.8739 13.5128L14.8685 10.2383C15.0522 10.0455 15.0522 9.74232 14.8685 9.5495L14.4891 9.17015C14.2963 8.98633 13.9932 8.98633 13.8004 9.17015L10.5263 12.165C9.92881 12.7171 9.05612 12.8514 8.32032 12.5045L3.32937 10.1485C3.1369 10.076 3.00694 9.89483 2.99996 9.68926V9.52953C2.98229 9.30492 3.11726 9.09631 3.32937 9.0204L20.0491 3.0306C20.2288 2.96459 20.4305 3.00726 20.5681 3.14042L20.8277 3.39997C20.9836 3.53626 21.0393 3.75475 20.9674 3.94904Z" fill="black"/>
</svg>
