<svg xmlns="http://www.w3.org/2000/svg" width="180" viewBox="0 0 180 180" height="180" version="1.0"><defs><clipPath id="a"><path d="M 39.375 39.375 L 140.625 39.375 L 140.625 140.625 L 39.375 140.625 Z M 39.375 39.375"/></clipPath></defs><g clip-path="url(#a)"><path fill="#FFF" d="M 47.8125 39.375 C 43.199219 39.375 39.375 43.199219 39.375 47.8125 L 39.375 64.6875 C 39.371094 64.964844 39.394531 65.242188 39.445312 65.515625 C 39.496094 65.792969 39.574219 66.058594 39.675781 66.320312 C 39.78125 66.578125 39.910156 66.824219 40.0625 67.058594 C 40.21875 67.292969 40.390625 67.507812 40.585938 67.707031 C 40.785156 67.90625 41 68.085938 41.230469 68.242188 C 41.460938 68.398438 41.707031 68.53125 41.964844 68.636719 C 42.222656 68.746094 42.488281 68.828125 42.761719 68.882812 C 43.035156 68.9375 43.3125 68.964844 43.59375 68.964844 C 43.871094 68.964844 44.148438 68.9375 44.421875 68.882812 C 44.695312 68.828125 44.960938 68.746094 45.21875 68.636719 C 45.480469 68.53125 45.722656 68.398438 45.953125 68.242188 C 46.1875 68.085938 46.402344 67.90625 46.597656 67.707031 C 46.792969 67.507812 46.96875 67.292969 47.121094 67.058594 C 47.273438 66.824219 47.402344 66.578125 47.507812 66.320312 C 47.613281 66.058594 47.6875 65.792969 47.742188 65.515625 C 47.792969 65.242188 47.816406 64.964844 47.8125 64.6875 L 47.8125 47.8125 L 64.6875 47.8125 C 64.964844 47.816406 65.242188 47.792969 65.515625 47.742188 C 65.792969 47.6875 66.058594 47.613281 66.320312 47.507812 C 66.578125 47.402344 66.824219 47.273438 67.058594 47.121094 C 67.292969 46.96875 67.507812 46.792969 67.707031 46.597656 C 67.90625 46.402344 68.085938 46.1875 68.242188 45.953125 C 68.398438 45.722656 68.53125 45.480469 68.636719 45.21875 C 68.746094 44.960938 68.828125 44.695312 68.882812 44.421875 C 68.9375 44.148438 68.964844 43.871094 68.964844 43.59375 C 68.964844 43.3125 68.9375 43.035156 68.882812 42.761719 C 68.828125 42.488281 68.746094 42.222656 68.636719 41.964844 C 68.53125 41.707031 68.398438 41.460938 68.242188 41.230469 C 68.085938 40.996094 67.90625 40.785156 67.707031 40.585938 C 67.507812 40.390625 67.292969 40.21875 67.058594 40.0625 C 66.824219 39.910156 66.578125 39.78125 66.320312 39.675781 C 66.058594 39.574219 65.792969 39.496094 65.515625 39.445312 C 65.242188 39.394531 64.964844 39.371094 64.6875 39.375 Z M 115.3125 39.375 C 114.761719 39.371094 114.234375 39.472656 113.722656 39.675781 C 113.214844 39.878906 112.761719 40.171875 112.367188 40.550781 C 111.972656 40.929688 111.664062 41.371094 111.4375 41.871094 C 111.214844 42.371094 111.09375 42.894531 111.074219 43.445312 C 111.054688 43.992188 111.140625 44.523438 111.328125 45.039062 C 111.515625 45.554688 111.792969 46.015625 112.160156 46.421875 C 112.527344 46.828125 112.960938 47.152344 113.453125 47.390625 C 113.945312 47.628906 114.46875 47.765625 115.015625 47.804688 C 115.113281 47.808594 115.210938 47.8125 115.3125 47.8125 L 132.1875 47.8125 L 132.1875 64.6875 C 132.179688 65.21875 132.269531 65.734375 132.457031 66.234375 C 132.648438 66.734375 132.921875 67.179688 133.28125 67.578125 C 133.636719 67.972656 134.058594 68.289062 134.535156 68.523438 C 135.011719 68.761719 135.519531 68.902344 136.050781 68.945312 C 136.191406 68.957031 136.332031 68.964844 136.472656 68.960938 C 136.746094 68.957031 137.019531 68.925781 137.292969 68.867188 C 137.5625 68.8125 137.824219 68.726562 138.078125 68.617188 C 138.332031 68.507812 138.574219 68.375 138.800781 68.214844 C 139.027344 68.058594 139.238281 67.882812 139.429688 67.683594 C 139.625 67.484375 139.796875 67.269531 139.945312 67.035156 C 140.097656 66.804688 140.222656 66.558594 140.324219 66.304688 C 140.425781 66.046875 140.503906 65.78125 140.554688 65.507812 C 140.605469 65.238281 140.628906 64.960938 140.625 64.6875 L 140.625 47.8125 C 140.625 43.199219 136.796875 39.375 132.1875 39.375 Z M 60.484375 76.921875 C 53.039062 76.921875 48.238281 81.925781 48.238281 89.992188 C 48.238281 98.074219 52.988281 103.074219 60.484375 103.074219 C 67.945312 103.074219 72.695312 98.074219 72.695312 89.992188 C 72.695312 81.925781 67.945312 76.921875 60.484375 76.921875 Z M 90.410156 76.921875 C 82.964844 76.921875 78.414062 81.890625 78.414062 89.992188 C 78.414062 98.089844 82.984375 103.074219 90.410156 103.074219 C 96.777344 103.074219 101.375 99.066406 101.582031 93.394531 L 95.535156 93.394531 C 95.171875 96.058594 93.144531 97.816406 90.425781 97.816406 C 86.949219 97.816406 84.832031 94.824219 84.832031 89.972656 C 84.832031 85.140625 86.957031 82.179688 90.410156 82.179688 C 93.128906 82.179688 95.179688 84.003906 95.503906 86.703125 L 101.566406 86.703125 C 101.382812 81.078125 96.652344 76.921875 90.410156 76.921875 Z M 106.875 77.34375 L 106.875 102.65625 L 113.308594 102.65625 L 113.308594 93.796875 L 116.644531 93.796875 L 120.980469 102.65625 L 128.207031 102.65625 L 123.148438 92.847656 C 125.917969 91.644531 127.464844 88.792969 127.464844 85.6875 C 127.464844 80.460938 123.925781 77.34375 118.015625 77.34375 Z M 60.484375 82.144531 C 63.960938 82.144531 66.285156 85.210938 66.285156 89.992188 C 66.285156 94.785156 63.972656 97.851562 60.484375 97.851562 C 56.957031 97.851562 54.675781 94.785156 54.675781 89.992188 C 54.675781 85.210938 56.996094 82.144531 60.484375 82.144531 Z M 113.308594 82.195312 L 117.097656 82.195312 C 119.398438 82.195312 120.890625 83.582031 120.890625 85.738281 C 120.890625 87.933594 119.480469 89.25 117.117188 89.25 L 113.308594 89.25 Z M 43.527344 111.035156 C 43.25 111.039062 42.976562 111.070312 42.707031 111.128906 C 42.433594 111.1875 42.171875 111.269531 41.917969 111.378906 C 41.664062 111.488281 41.425781 111.625 41.195312 111.78125 C 40.96875 111.9375 40.757812 112.117188 40.566406 112.3125 C 40.371094 112.511719 40.199219 112.726562 40.050781 112.960938 C 39.898438 113.191406 39.773438 113.4375 39.671875 113.695312 C 39.570312 113.953125 39.492188 114.214844 39.441406 114.488281 C 39.394531 114.761719 39.371094 115.035156 39.375 115.3125 L 39.375 132.1875 C 39.375 136.796875 43.199219 140.625 47.8125 140.625 L 64.6875 140.625 C 64.828125 140.625 64.964844 140.621094 65.105469 140.605469 C 65.390625 140.582031 65.667969 140.53125 65.9375 140.449219 C 66.074219 140.410156 66.203125 140.363281 66.335938 140.308594 C 66.789062 140.125 67.199219 139.867188 67.5625 139.539062 C 67.929688 139.210938 68.226562 138.828125 68.457031 138.394531 C 68.691406 137.960938 68.839844 137.503906 68.914062 137.015625 C 68.984375 136.53125 68.96875 136.046875 68.871094 135.566406 C 68.773438 135.085938 68.597656 134.632812 68.34375 134.214844 C 68.089844 133.792969 67.769531 133.429688 67.386719 133.121094 C 67.007812 132.8125 66.582031 132.578125 66.117188 132.417969 C 65.65625 132.257812 65.175781 132.179688 64.6875 132.1875 L 47.8125 132.1875 L 47.8125 115.3125 C 47.816406 115.027344 47.789062 114.75 47.738281 114.472656 C 47.6875 114.195312 47.605469 113.925781 47.5 113.664062 C 47.394531 113.402344 47.261719 113.152344 47.105469 112.917969 C 46.949219 112.683594 46.773438 112.464844 46.574219 112.265625 C 46.371094 112.066406 46.15625 111.890625 45.921875 111.734375 C 45.683594 111.578125 45.4375 111.449219 45.175781 111.34375 C 44.914062 111.234375 44.644531 111.15625 44.367188 111.105469 C 44.089844 111.054688 43.808594 111.03125 43.527344 111.035156 Z M 136.339844 111.035156 C 135.804688 111.042969 135.292969 111.148438 134.796875 111.351562 C 134.304688 111.554688 133.867188 111.84375 133.480469 112.214844 C 133.097656 112.582031 132.792969 113.011719 132.570312 113.496094 C 132.347656 113.980469 132.222656 114.488281 132.195312 115.023438 C 132.1875 115.117188 132.183594 115.214844 132.1875 115.3125 L 132.1875 132.1875 L 115.3125 132.1875 C 114.761719 132.183594 114.234375 132.285156 113.722656 132.488281 C 113.214844 132.691406 112.761719 132.984375 112.367188 133.363281 C 111.972656 133.742188 111.664062 134.183594 111.4375 134.683594 C 111.214844 135.183594 111.09375 135.707031 111.074219 136.257812 C 111.054688 136.804688 111.140625 137.335938 111.328125 137.851562 C 111.515625 138.367188 111.792969 138.828125 112.160156 139.234375 C 112.527344 139.640625 112.960938 139.964844 113.453125 140.203125 C 113.945312 140.441406 114.46875 140.578125 115.015625 140.617188 C 115.113281 140.621094 115.210938 140.625 115.3125 140.625 L 132.1875 140.625 C 136.796875 140.625 140.625 136.796875 140.625 132.1875 L 140.625 115.3125 C 140.628906 115.027344 140.601562 114.75 140.550781 114.472656 C 140.5 114.195312 140.417969 113.925781 140.3125 113.664062 C 140.207031 113.402344 140.074219 113.152344 139.917969 112.917969 C 139.761719 112.683594 139.585938 112.464844 139.386719 112.265625 C 139.183594 112.066406 138.96875 111.890625 138.734375 111.734375 C 138.496094 111.578125 138.25 111.449219 137.988281 111.34375 C 137.726562 111.234375 137.457031 111.15625 137.179688 111.105469 C 136.902344 111.054688 136.621094 111.03125 136.339844 111.035156 Z M 136.339844 111.035156"/></g></svg>