<svg width="40" height="40" viewBox="0 0 40 40" fill="none" xmlns="http://www.w3.org/2000/svg">
<circle cx="20" cy="20" r="19" fill="#0A0A0A" stroke="white" stroke-width="2"/>
<path d="M18.3194 20.6401V19.4241C18.3194 19.3068 18.3781 19.2481 18.4954 19.2481H19.3274C19.9674 19.2481 20.4528 19.1148 20.7834 18.8481C21.1141 18.5815 21.2794 18.2028 21.2794 17.7121C21.2794 17.2321 21.1088 16.8641 20.7674 16.6081C20.4261 16.3415 19.9781 16.2081 19.4234 16.2081C18.9114 16.2081 18.4794 16.3468 18.1274 16.6241C17.7754 16.9015 17.5674 17.2855 17.5034 17.7761C17.4928 17.9041 17.4234 17.9681 17.2954 17.9681H16.0954C15.9568 17.9681 15.8874 17.8775 15.8874 17.6961C15.9408 16.8215 16.3141 16.0961 17.0074 15.5201C17.7008 14.9335 18.5061 14.6401 19.4234 14.6401C20.4048 14.6401 21.2208 14.9015 21.8714 15.4241C22.5221 15.9468 22.8474 16.6401 22.8474 17.5041C22.8474 18.5495 22.4261 19.3601 21.5834 19.9361C22.7674 20.4481 23.3594 21.3815 23.3594 22.7361C23.3594 23.8028 22.9968 24.6401 22.2714 25.2481C21.5461 25.8561 20.5968 26.1601 19.4234 26.1601C18.3354 26.1601 17.4288 25.8348 16.7034 25.1841C15.9781 24.5335 15.5781 23.6748 15.5034 22.6081C15.5034 22.4268 15.5728 22.3361 15.7114 22.3361H16.8954C17.0341 22.3361 17.1088 22.4055 17.1194 22.5441C17.1941 23.1948 17.4501 23.7015 17.8874 24.0641C18.3248 24.4161 18.8581 24.5921 19.4874 24.5921C20.1488 24.5921 20.6874 24.4268 21.1034 24.0961C21.5194 23.7655 21.7274 23.2695 21.7274 22.6081C21.7274 22.0641 21.5248 21.6321 21.1194 21.3121C20.7141 20.9815 20.1488 20.8161 19.4234 20.8161H18.4954C18.3781 20.7841 18.3194 20.7255 18.3194 20.6401Z" fill="white"/>
</svg>
