<svg width="40" height="40" viewBox="0 0 40 40" fill="none" xmlns="http://www.w3.org/2000/svg">
<circle cx="20" cy="20" r="19" fill="#0A0A0A" stroke="white" stroke-width="2"/>
<path d="M16.1646 25.8401V24.8481C16.1646 24.6988 16.2232 24.5761 16.3406 24.4801L20.7086 20.3521C21.4126 19.6908 21.7646 18.9228 21.7646 18.0481C21.7646 17.5148 21.5886 17.0775 21.2366 16.7361C20.8846 16.3841 20.4152 16.2081 19.8286 16.2081C19.2206 16.2081 18.7352 16.3895 18.3726 16.7521C18.0099 17.1041 17.8126 17.5681 17.7806 18.1441C17.7699 18.3041 17.7006 18.3841 17.5726 18.3841H16.3726C16.2446 18.3841 16.1806 18.3041 16.1806 18.1441C16.2019 17.1521 16.5486 16.3201 17.2206 15.6481C17.9032 14.9761 18.7726 14.6401 19.8286 14.6401C20.9059 14.6401 21.7699 14.9548 22.4206 15.5841C23.0712 16.2028 23.3966 17.0028 23.3966 17.9841C23.3966 18.7095 23.2686 19.3335 23.0126 19.8561C22.7672 20.3681 22.3619 20.8855 21.7966 21.4081L18.5806 24.4321H23.5726C23.6792 24.4321 23.7326 24.4855 23.7326 24.5921V25.8401C23.7326 25.9468 23.6792 26.0001 23.5726 26.0001H16.3246C16.2179 26.0001 16.1646 25.9468 16.1646 25.8401Z" fill="white"/>
</svg>
