<svg xmlns="http://www.w3.org/2000/svg" width="180" viewBox="0 0 180 180" height="180" version="1.0"><defs><clipPath id="a"><path d="M 63 85 L 117 85 L 117 144.054688 L 63 144.054688 Z M 63 85"/></clipPath><clipPath id="b"><path d="M 31.125 36.054688 L 148.875 36.054688 L 148.875 115 L 31.125 115 Z M 31.125 36.054688"/></clipPath></defs><g clip-path="url(#a)"><path fill="#FFF" d="M 97.355469 144.054688 L 82.644531 144.054688 C 79.9375 144.054688 77.738281 141.851562 77.738281 139.144531 L 77.738281 114.601562 L 65.480469 114.601562 C 64.488281 114.601562 63.59375 114 63.214844 113.082031 C 62.835938 112.164062 63.046875 111.109375 63.746094 110.410156 L 88.261719 85.863281 C 89.21875 84.90625 90.773438 84.90625 91.730469 85.863281 L 116.25 110.410156 C 116.949219 111.109375 117.160156 112.164062 116.777344 113.082031 C 116.394531 114 115.507812 114.601562 114.519531 114.601562 L 102.257812 114.601562 L 102.257812 139.144531 C 102.257812 141.851562 100.0625 144.054688 97.355469 144.054688 Z M 71.398438 109.691406 L 80.191406 109.691406 C 81.546875 109.691406 82.644531 110.792969 82.644531 112.144531 L 82.644531 139.144531 L 97.355469 139.144531 L 97.355469 112.144531 C 97.355469 110.792969 98.453125 109.691406 99.808594 109.691406 L 108.597656 109.691406 L 90 91.070312 Z M 71.398438 109.691406"/></g><g clip-path="url(#b)"><path fill="#FFF" d="M 53.226562 114.453125 C 53.132812 114.453125 53.042969 114.449219 52.945312 114.4375 C 40.523438 113.058594 31.152344 102.574219 31.152344 90.054688 C 31.152344 77.085938 41.25 66.4375 53.984375 65.570312 C 57.378906 48.601562 72.507812 36.054688 90 36.054688 C 103.734375 36.054688 116.386719 43.800781 122.625 55.90625 C 137.441406 57.464844 148.84375 70.035156 148.84375 85.144531 C 148.84375 98.300781 140.039062 109.9375 127.433594 113.433594 C 126.121094 113.789062 124.777344 113.023438 124.417969 111.71875 C 124.054688 110.414062 124.820312 109.058594 126.125 108.699219 C 136.613281 105.792969 143.941406 96.101562 143.941406 85.144531 C 143.941406 72.152344 133.824219 61.410156 120.90625 60.695312 C 120 60.644531 119.203125 60.101562 118.820312 59.28125 C 113.628906 48.15625 102.324219 40.964844 90 40.964844 C 74.234375 40.964844 60.691406 52.722656 58.492188 68.308594 C 58.320312 69.515625 57.285156 70.417969 56.066406 70.417969 C 44.855469 70.417969 36.058594 79.226562 36.058594 90.054688 C 36.058594 100.070312 43.550781 108.453125 53.496094 109.558594 C 54.839844 109.710938 55.808594 110.921875 55.660156 112.269531 C 55.519531 113.527344 54.457031 114.453125 53.226562 114.453125 Z M 53.226562 114.453125"/></g></svg>